HIERARCHY
ROOT Hips
{
  OFFSET 0 0.240689 0
  CHANNELS 6 Xposition Yposition Zposition Zrotation Xrotation Yrotation
  JOINT Bip01_Spine0
  {
    OFFSET 0 -24.7459 49.7988
    CHANNELS 6 Xposition Yposition Zposition Zrotation Xrotation Yrotation
    JOINT Bip01_Pelvis
    {
      OFFSET 0 0 0
      CHANNELS 6 Xposition Yposition Zposition Zrotation Xrotation Yrotation
      JOINT Bip01_Spine0_Tail
      {
        OFFSET -6.47486 -3.86022 0
        CHANNELS 6 Xposition Yposition Zposition Zrotation Xrotation Yrotation
        JOINT Bip01_Spine0_Tail1
        {
          OFFSET 10.3837 -0.00825882 0
          CHANNELS 6 Xposition Yposition Zposition Zrotation Xrotation Yrotation
          JOINT Bip01_Spine0_Tail2
          {
            OFFSET 10.3837 -0.00826263 0
            CHANNELS 6 Xposition Yposition Zposition Zrotation Xrotation Yrotation
            JOINT Bip01_Spine0_Tail3
            {
              OFFSET 10.3837 -0.00825882 0
              CHANNELS 6 Xposition Yposition Zposition Zrotation Xrotation Yrotation
              JOINT Bip01_Spine0_Tail4
              {
                OFFSET 10.3837 -0.00826263 0
                CHANNELS 6 Xposition Yposition Zposition Zrotation Xrotation Yrotation
                End Site
                {
                  OFFSET 0 0 0
                }
              }
            }
          }
        }
      }
      JOINT Bip01_R_Thigh
      {
        OFFSET 0 -1.52588e-005 -8.75617
        CHANNELS 6 Xposition Yposition Zposition Zrotation Xrotation Yrotation
        JOINT Bip01_R_Calf
        {
          OFFSET 19.7638 0 0
          CHANNELS 6 Xposition Yposition Zposition Zrotation Xrotation Yrotation
          JOINT Bip01_R_Foot
          {
            OFFSET 18.6534 0 0
            CHANNELS 6 Xposition Yposition Zposition Zrotation Xrotation Yrotation
            JOINT Bip01_R_Toe0
            {
              OFFSET 5.09145 13.9567 0
              CHANNELS 6 Xposition Yposition Zposition Zrotation Xrotation Yrotation
              JOINT Bip01_R_Toe01
              {
                OFFSET 4.28803 0 0
                CHANNELS 6 Xposition Yposition Zposition Zrotation Xrotation Yrotation
                JOINT Bip01_R_Toe02
                {
                  OFFSET 3.85801 0 0
                  CHANNELS 6 Xposition Yposition Zposition Zrotation Xrotation Yrotation
                  End Site
                  {
                    OFFSET 0 0 0
                  }
                }
              }
            }
          }
        }
      }
      JOINT Bip01_L_Thigh
      {
        OFFSET 0 1.52588e-005 8.75617
        CHANNELS 6 Xposition Yposition Zposition Zrotation Xrotation Yrotation
        JOINT Bip01_L_Calf
        {
          OFFSET 19.7638 0 0
          CHANNELS 6 Xposition Yposition Zposition Zrotation Xrotation Yrotation
          JOINT Bip01_L_Foot
          {
            OFFSET 18.6534 0 0
            CHANNELS 6 Xposition Yposition Zposition Zrotation Xrotation Yrotation
            JOINT Bip01_L_Toe0
            {
              OFFSET 5.09144 13.9567 0
              CHANNELS 6 Xposition Yposition Zposition Zrotation Xrotation Yrotation
              JOINT Bip01_L_Toe01
              {
                OFFSET 4.28802 0 0
                CHANNELS 6 Xposition Yposition Zposition Zrotation Xrotation Yrotation
                JOINT Bip01_L_Toe02
                {
                  OFFSET 3.85801 0 0
                  CHANNELS 6 Xposition Yposition Zposition Zrotation Xrotation Yrotation
                  End Site
                  {
                    OFFSET 0 0 0
                  }
                }
              }
            }
          }
        }
      }
      JOINT Bip01_Spine
      {
        OFFSET 9.14835 -0.00640869 -1.1e-005
        CHANNELS 6 Xposition Yposition Zposition Zrotation Xrotation Yrotation
        JOINT Bip01_Spine1
        {
          OFFSET 8.04366 -0.00638199 0
          CHANNELS 6 Xposition Yposition Zposition Zrotation Xrotation Yrotation
          JOINT Bip01_Spine2
          {
            OFFSET 8.04367 -0.00639343 0
            CHANNELS 6 Xposition Yposition Zposition Zrotation Xrotation Yrotation
            JOINT Bip01_Spine3
            {
              OFFSET 8.04304 -0.00831222 0
              CHANNELS 6 Xposition Yposition Zposition Zrotation Xrotation Yrotation
              JOINT Bip01_Neck
              {
                OFFSET 10.6685 1.06813 0
                CHANNELS 6 Xposition Yposition Zposition Zrotation Xrotation Yrotation
                JOINT Bip01_R_Clavicle
                {
                  OFFSET -3.21661 -4.89635 -9.04802
                  CHANNELS 6 Xposition Yposition Zposition Zrotation Xrotation Yrotation
                  JOINT Bip01_R_UpperArm
                  {
                    OFFSET 19.0492 0 0
                    CHANNELS 6 Xposition Yposition Zposition Zrotation Xrotation Yrotation
                    JOINT Bip01_R_Forearm
                    {
                      OFFSET 10.3706 0 0
                      CHANNELS 6 Xposition Yposition Zposition Zrotation Xrotation Yrotation
                      JOINT Bip01_R_Hand
                      {
                        OFFSET 22.8632 0 0
                        CHANNELS 6 Xposition Yposition Zposition Zrotation Xrotation Yrotation
                        JOINT Bip01_R_Finger0
                        {
                          OFFSET 6.48259 0.103651 0.504496
                          CHANNELS 6 Xposition Yposition Zposition Zrotation Xrotation Yrotation
                          JOINT Bip01_R_Finger01
                          {
                            OFFSET 3.66847 0 0
                            CHANNELS 6 Xposition Yposition Zposition Zrotation Xrotation Yrotation
                            End Site
                            {
                              OFFSET 0 0 0
                            }
                          }
                        }
                      }
                    }
                  }
                }
                JOINT Bip01_L_Clavicle
                {
                  OFFSET -3.21661 -4.89641 9.04797
                  CHANNELS 6 Xposition Yposition Zposition Zrotation Xrotation Yrotation
                  JOINT Bip01_L_UpperArm
                  {
                    OFFSET 19.0492 0 0
                    CHANNELS 6 Xposition Yposition Zposition Zrotation Xrotation Yrotation
                    JOINT Bip01_L_Forearm
                    {
                      OFFSET 10.3706 0 0
                      CHANNELS 6 Xposition Yposition Zposition Zrotation Xrotation Yrotation
                      JOINT Bip01_L_Hand
                      {
                        OFFSET 22.8631 0 0
                        CHANNELS 6 Xposition Yposition Zposition Zrotation Xrotation Yrotation
                        JOINT Bip01_L_Finger0
                        {
                          OFFSET 6.48257 0.103655 -0.504492
                          CHANNELS 6 Xposition Yposition Zposition Zrotation Xrotation Yrotation
                          JOINT Bip01_L_Finger01
                          {
                            OFFSET 3.66844 0 0
                            CHANNELS 6 Xposition Yposition Zposition Zrotation Xrotation Yrotation
                            End Site
                            {
                              OFFSET 0 0 0
                            }
                          }
                        }
                      }
                    }
                  }
                }
                JOINT Bip01_Neck1
                {
                  OFFSET 7.52459 -0.00656509 0
                  CHANNELS 6 Xposition Yposition Zposition Zrotation Xrotation Yrotation
                  JOINT Bip01_Neck2
                  {
                    OFFSET 8.4783 -0.00588226 0
                    CHANNELS 6 Xposition Yposition Zposition Zrotation Xrotation Yrotation
                    JOINT Bip01_Head
                    {
                      OFFSET 8.41606 0 0
                      CHANNELS 6 Xposition Yposition Zposition Zrotation Xrotation Yrotation
                      JOINT EyesBlue
                      {
                        OFFSET 0 0 0
                        CHANNELS 6 Xposition Yposition Zposition Zrotation Xrotation Yrotation
                        JOINT EyesBlue_2
                        {
                          OFFSET 0 -0.500007 0
                          CHANNELS 6 Xposition Yposition Zposition Zrotation Xrotation Yrotation
                          End Site
                          {
                            OFFSET 0 0 0
                          }
                        }
                      }
                      JOINT Bip01_Head2_Eyeleds
                      {
                        OFFSET 6.52751 7.61746 2.2e-005
                        CHANNELS 6 Xposition Yposition Zposition Zrotation Xrotation Yrotation
                        End Site
                        {
                          OFFSET 0 0 0
                        }
                      }
                      JOINT Bip01_Head_Muzzle
                      {
                        OFFSET 2.88628 13.9448 3.88994
                        CHANNELS 6 Xposition Yposition Zposition Zrotation Xrotation Yrotation
                        End Site
                        {
                          OFFSET 0 0 0
                        }
                      }
                      JOINT Bip01_Head1_Jaw
                      {
                        OFFSET 0.271065 1.32405 0
                        CHANNELS 6 Xposition Yposition Zposition Zrotation Xrotation Yrotation
                        JOINT _Bip01_Head11_TungeControler
                        {
                          OFFSET 4.61616 5.82872 0
                          CHANNELS 6 Xposition Yposition Zposition Zrotation Xrotation Yrotation
                          JOINT _Bip01_Ponytail3_tunge
                          {
                            OFFSET 5.17785 2.98805 0
                            CHANNELS 6 Xposition Yposition Zposition Zrotation Xrotation Yrotation
                            JOINT Bip01_Ponytail31
                            {
                              OFFSET 5.57569 0 0
                              CHANNELS 6 Xposition Yposition Zposition Zrotation Xrotation Yrotation
                              JOINT Bip01_Ponytail32
                              {
                                OFFSET 2.93165 0 0
                                CHANNELS 6 Xposition Yposition Zposition Zrotation Xrotation Yrotation
                                JOINT Bip01_Ponytail3Nub
                                {
                                  OFFSET 3.30155 0 0
                                  CHANNELS 6 Xposition Yposition Zposition Zrotation Xrotation Yrotation
                                  End Site
                                  {
                                    OFFSET 0 0 0
                                  }
                                }
                              }
                            }
                          }
                        }
                        JOINT Bip01_Head_JawNub
                        {
                          OFFSET 15.5776 -0.000389099 0
                          CHANNELS 6 Xposition Yposition Zposition Zrotation Xrotation Yrotation
                          End Site
                          {
                            OFFSET 0 0 0
                          }
                        }
                      }
                      JOINT Bip01_Ponytail2
                      {
                        OFFSET 9.40334 1.03973 -6.51764
                        CHANNELS 6 Xposition Yposition Zposition Zrotation Xrotation Yrotation
                        JOINT Bip01_Ponytail21
                        {
                          OFFSET 2.77018 -0.00640106 1.33514e-005
                          CHANNELS 6 Xposition Yposition Zposition Zrotation Xrotation Yrotation
                          End Site
                          {
                            OFFSET 0 0 0
                          }
                        }
                      }
                      JOINT Bip01_Ponytail1
                      {
                        OFFSET 9.40368 1.03969 6.51768
                        CHANNELS 6 Xposition Yposition Zposition Zrotation Xrotation Yrotation
                        JOINT Bip01_Ponytail11
                        {
                          OFFSET 2.77018 -0.00640487 0
                          CHANNELS 6 Xposition Yposition Zposition Zrotation Xrotation Yrotation
                          End Site
                          {
                            OFFSET 0 0 0
                          }
                        }
                      }
                    }
                  }
                }
              }
            }
          }
        }
      }
    }
  }
}
MOTION
Frames:	4
Frame Time:	0.0333333
0 1e-006 -1e-006 -0 -90 -0 -12.3934 -28.7009 30.5319 105.776 -10.5962 56.9345 0 0 0 -90 -3.50835e-015 -90 -6.477 -3.85879 -0.000104 156.46 0.00143086 -0.000915347 10.3771 -0.005313 6.9e-005 -49.1654 0.000667 0.001793 10.3784 -0.006689 0.000127 -36.5003 0.000708999 0.001406 10.3794 -0.007161 0.000134 -27.9998 0.000437 0.000728001 10.3791 -0.007006 0.000129 -30.5005 0.000444004 0.000777001 7e-006 -1.5e-005 -8.75617 -129.711 -2.61609 165.099 19.7638 -1e-006 -1.2168e-013 -129.656 0.0012902 -0.00359045 18.6534 3.19744e-014 -1e-006 75.3001 19.9414 -8.49818 5.09144 13.9567 -1.28472e-007 98.5379 0.86866 -4.92388 4.288 3.55271e-015 3.55271e-015 -17.5002 0.000985655 0.00134316 3.85799 1e-006 -1.43885e-013 -45 -2.16433e-005 1.67708e-006 -1.5e-005 7e-006 8.75617 -75.9058 23.5543 -175.424 19.7638 1.24345e-014 -1e-006 -117.125 0.000142968 -0.000590532 18.6534 2e-006 1.35003e-013 63.1631 22.2351 30.2234 5.09143 13.9567 -4.78198e-006 96.0665 -1.62547 4.72941 4.288 1.77636e-015 0 32.5009 -9.0654e-005 1.69094e-005 3.85799 2.36433e-012 -2e-006 -45 5.81139e-005 3.30994e-005 9.14889 -0.006271 0.000578 4.79502 -4.16229 6.83806 8.04405 -0.006362 -0.000581 3.27655 6.01228 24.0266 8.0447 -0.006248 -0.00072 9.45512 7.67194 16.5379 8.04411 -0.008224 -0.000358001 3.6078 2.80467 9.96215 10.6677 1.06841 -2.87592e-006 -22.1638 0.00752677 9.50006 -0.894633 -5.33531 -9.32279 -110.9 -78.0025 162.334 19.0492 2e-006 -1e-006 113.349 -1.05236 -72.6086 10.3706 -9.99999e-007 3e-006 -103.111 0.000433648 -0.00373958 22.8631 1e-006 1e-006 2.63212 -24.5682 0.523621 6.48256 0.103653 0.504498 -69.5591 23.1695 -3.62199 3.66843 -3.38529e-012 2e-006 40.107 9.49336e-005 -5.22497e-005 -3.88117 -5.33289 8.52478 118.724 81.1552 -31.2538 19.0492 -3e-006 -1.38556e-013 53.4745 -59.5143 62.1713 10.3706 -3e-006 -3e-006 -85.0077 -5.38077e-005 -0.00105627 22.8631 -7e-006 -3e-006 80.8133 -22.5126 8.43246 6.48256 0.103653 -0.504494 -31.868 11.559 10.3983 3.66843 1e-006 -1e-006 34.607 -1.03003e-005 7.92577e-006 7.52516 -0.006637 3.40001e-005 -7.49929 0.00933149 10.0013 8.475 -0.006572 3.00001e-005 -0.000906261 0.0131562 15.0002 8.41605 -3.55271e-015 0 -45.4095 -57.6228 44.2784 -3e-006 7e-006 -7e-006 -23.1098 1.37701e-015 90 -4.3112e-006 -0.500004 5.6882e-006 -129.917 90 -140.083 0 0 0 -113.549 -3.24611e-014 -180 2.88631 13.9448 3.88994 -22.989 1.37021e-015 90 0 0 0 -52.836 1.52588e-005 -180 0 0 0 -120.289 1.67044e-006 7.51483e-006 0 0 0 133.74 -2.48922e-006 4.37812e-006 0 0 0 1.83152 3.09181e-007 -2.13462e-007 0 0 0 -17.65 -2.89529e-006 1.93028e-006 0 0 0 -26.1943 1.27608e-006 3.95594e-006 15.5776 -0.000396 -7.00006e-006 -8.82781e-032 -3.18055e-015 -1.59028e-015 9.40547 1.04011 -6.51668 41.3381 -7.89202 90.0335 2.77379 -0.004741 0.001875 39.3175 -16.8116 19.6634 9.40581 1.04012 6.51669 41.3383 7.89054 -90.0342 2.77379 -0.004741 -0.001816 39.3186 16.8145 -19.6636 
0.435189 1e-006 -9.59984e-007 -0 -90 -0 -12.1778 -28.7009 30.8147 105.528 -10.3651 57.2571 0 0 0 -90 0.0744141 -89.5355 -6.47661 -3.85879 -0.0524301 155.674 -0.189718 0.421953 10.3771 -0.005313 6.9e-005 -48.6076 0.000684423 0.00178642 10.3784 -0.006689 0.000127 -36.1174 0.000718379 0.00140123 10.3794 -0.007161 0.000134 -29.2861 0.000420547 0.000737627 10.3791 -0.007006 0.000129 -28.5454 0.000470254 0.000761401 7.00846e-006 -1.50098e-005 -8.75617 -130.626 -2.93785 166.146 19.7638 -1e-006 -1.16795e-013 -129.155 0.00127087 -0.00359202 18.6534 3.55271e-014 -1e-006 74.2878 19.1139 -9.08436 5.09144 13.9567 -1.44069e-007 98.7925 0.85981 -4.91739 4.288 7.10543e-015 1.77636e-015 -16.638 0.00100637 0.00132826 3.85799 1e-006 -1.5099e-013 -45 -2.2293e-005 1.15996e-006 -1.50085e-005 7.00978e-006 8.75617 -78.2667 23.3708 -175.382 19.7638 1.77636e-014 -1e-006 -118.781 0.000152433 -0.000590056 18.6534 2e-006 1.56319e-013 61.4684 20.0008 30.9176 5.09143 13.9567 -4.78539e-006 97.5262 -2.16231 4.33533 4.288 -1.77636e-015 -3.55271e-015 32.9123 -8.88351e-005 1.66848e-005 3.85799 2.3519e-012 -2e-006 -45 5.69483e-005 3.23527e-005 9.14842 -0.006271 0.0744862 4.74918 -4.1385 6.27157 8.04405 -0.006362 -0.000581 3.1909 5.91732 23.7313 8.0447 -0.006248 -0.00072 9.34051 7.43577 16.2989 8.04411 -0.008224 -0.000358001 3.52829 2.75544 9.8141 10.6677 1.06841 -2.87549e-006 -22.2595 8.45679e-005 10.1429 -0.779132 -5.33818 -9.33141 -113.276 -76.6425 161.401 19.0492 2e-006 -1e-006 109.281 -3.67309 -70.1956 10.3706 -9.99999e-007 3e-006 -102.322 0.000408485 -0.0037409 22.8631 1e-006 1e-006 -0.0973554 -20.8243 -1.16233 6.48256 0.103653 0.504498 -65.0919 20.0145 -5.43171 3.66843 -3.76033e-012 2e-006 40.107 0.000104936 -5.95772e-005 -3.96992 -5.33801 8.48066 116.884 80.5786 -29.2994 19.0492 -3e-006 -1.27898e-013 55.8635 -55.0576 65.3939 10.3706 -3e-006 -3e-006 -83.3987 -5.82396e-005 -0.00105735 22.8631 -7e-006 -3e-006 74.7462 -23.4419 8.18883 6.48256 0.103653 -0.504494 -33.5613 11.2494 10.7331 3.66843 1e-006 -1e-006 34.8023 -1.013e-005 7.89666e-006 7.52516 -0.006637 3.40001e-005 -8.85318 -0.108731 11.7587 8.475 -0.006572 3.00001e-005 -0.622878 -0.169427 16.365 8.41605 0 -7.10543e-015 -36.7528 -57.4647 45.9527 -3e-006 7e-006 -7e-006 -23.1098 1.37701e-015 90 -4.28999e-006 -0.500004 5.67125e-006 -137.5 90 -132.5 0 0 0 -112.969 -1.52588e-005 -180 3.03154 13.9333 3.88994 -22.989 1.37021e-015 90 0 0 0 -55.338 1.52588e-005 -180 0 0 0 -120.289 -8.41829e-007 4.87859e-006 0 0 0 133.74 -2.2766e-006 1.45056e-006 0 0 0 1.83152 3.22131e-007 -1.17127e-007 0 0 0 -17.65 -2.69624e-006 1.01291e-006 0 0 0 -26.1943 2.2442e-006 2.5954e-006 15.5776 -0.000396 -7.00004e-006 -0 0 1.59028e-015 9.40547 1.04011 -6.51668 40.5109 -8.90507 88.5972 2.77379 -0.004741 0.001875 38.9952 -17.5652 19.3151 9.40582 1.04012 6.51669 40.5108 8.90542 -88.5975 2.77379 -0.004741 -0.001816 38.9965 17.5673 -19.3152 
0.870364 1e-006 -9.19969e-007 -0 -90 -0 -11.6468 -28.7009 31.4665 104.968 -9.74986 58.5418 0 0 0 -90 0.00439103 -88.9287 -6.4754 -3.85879 -0.121071 153.755 -0.472329 0.960035 10.3771 -0.005313 6.9e-005 -47.2367 0.000726966 0.00176954 10.3784 -0.006689 0.000127 -35.2519 0.000739464 0.00139022 10.3794 -0.007161 0.000134 -32.077 0.000384133 0.000757229 10.3791 -0.007006 0.000129 -24.2666 0.000525751 0.000724193 7.01951e-006 -1.50243e-005 -8.75617 -131.486 -3.3934 167.371 19.7638 -1e-006 -1.10134e-013 -127.338 0.00120257 -0.00359626 18.6534 2.13163e-014 -1e-006 71.1959 17.7537 -9.50612 5.09144 13.9567 -1.8951e-007 99.4494 0.837518 -4.89999 4.288 -7.10543e-015 -3.55271e-015 -14.4275 0.00105772 0.0012886 3.85799 1e-006 -1.72307e-013 -45 -2.33162e-005 5.67087e-008 -1.50195e-005 7.02429e-006 8.75617 -82.2664 22.8894 -174.57 19.7638 1.42109e-014 -1e-006 -119.653 0.000157751 -0.00058963 18.6534 2e-006 1.52767e-013 58.6435 18.0284 30.3722 5.09143 13.9567 -4.79492e-006 98.3254 -2.61668 3.95905 4.288 3.55272e-015 0 33.97 -8.53618e-005 1.64646e-005 3.85799 2.27019e-012 -2e-006 -45 5.48381e-005 3.08452e-005 9.14703 -0.006271 0.171425 4.50276 -4.03986 5.40129 8.04405 -0.006362 -0.000581 3.13051 5.68996 22.8927 8.0447 -0.006248 -0.00072 9.18937 6.99117 15.6935 8.04411 -0.008224 -0.000358001 3.20959 2.62434 9.44925 10.6677 1.06841 -2.87451e-006 -22.2973 -0.00255707 10.6914 -0.685935 -5.33938 -9.33808 -115.43 -75.3639 160.748 19.0492 2e-006 -1e-006 104.31 -7.08033 -69.4308 10.3706 -9.99999e-007 3e-006 -101.355 0.00037736 -0.00374201 22.8631 1e-006 1e-006 -3.37607 -17.4603 -1.9946 6.48256 0.103653 0.504498 -60.8225 16.748 -6.94276 3.66843 -3.77609e-012 2e-006 40.107 0.000107039 -6.02953e-005 -4.04774 -5.34 8.44258 118.034 80.0556 -30.9356 19.0492 -3e-006 -1.10134e-013 62.1567 -48.137 73.6159 10.3706 -3e-006 -3e-006 -81.8187 -9.0156e-005 -0.00105484 22.8631 -7e-006 -3e-006 62.3244 -24.985 6.86332 6.48256 0.103653 -0.504494 -35.8311 10.8183 11.1676 3.66843 1e-006 -1e-006 35.3223 -9.06569e-006 7.54238e-006 7.52516 -0.006637 3.40001e-005 -9.39356 -0.167103 14.0253 8.475 -0.006572 3.00001e-005 -0.861783 -0.262353 17.7538 8.41605 0 -7.10543e-015 -32.5771 -53.1996 42.2367 -3e-006 7e-006 -7e-006 -23.1098 1.37701e-015 90 -4.29901e-006 -0.500004 5.66049e-006 -141.405 90 -128.595 0 0 0 -112.389 -1.52588e-005 -180 3.17676 13.9219 3.88994 -22.989 1.37021e-015 90 0 0 0 -57.8399 1.52588e-005 -180 0 0 0 -120.289 -3.18664e-006 4.52768e-006 0 0 0 133.74 -3.49002e-006 -3.91618e-007 0 0 0 1.83152 3.74761e-007 -9.95654e-008 0 0 0 -17.65 -2.83506e-006 8.30441e-007 0 0 0 -26.1943 4.03422e-006 2.40353e-006 15.5776 -0.000396 -7.00004e-006 1.59028e-015 0 -1.59028e-015 9.40547 1.04011 -6.51668 39.543 -11.0364 86.9966 2.77379 -0.004741 0.001875 37.0484 -17.6927 18.5796 9.40581 1.04012 6.51669 39.5438 11.0367 -86.997 2.77379 -0.004741 -0.001816 37.0496 17.6943 -18.5791 
1.30556 1e-006 -8.79952e-007 -0 -90 -0 -10.8368 -28.7009 32.4449 104.112 -8.81553 60.6946 0 0 0 -90 0.00551139 -88.203 -6.47293 -3.85879 -0.203094 151.171 -0.865146 1.57333 10.3771 -0.005313 6.9e-005 -45.1455 0.000791053 0.00174183 10.3784 -0.006689 0.000127 -34.0788 0.000767771 0.00137479 10.3794 -0.007161 0.000134 -35.5769 0.000337189 0.000779267 10.3791 -0.007006 0.000129 -18.7922 0.000592442 0.000670733 7.03272e-006 -1.50456e-005 -8.75617 -132.253 -3.96396 168.741 19.7638 -1e-006 -9.05942e-014 -124.354 0.00109247 -0.00360137 18.6534 2.84217e-014 -1e-006 66.2556 15.9662 -9.80025 5.09144 13.9567 -2.59255e-007 100.488 0.80302 -4.87131 4.288 -1.77636e-015 1.77636e-015 -10.9323 0.00113534 0.00122207 3.85799 1e-006 -2.13163e-013 -45 -2.46257e-005 -1.57142e-006 -1.50327e-005 7.04563e-006 8.75617 -87.5442 22.0053 -173.18 19.7638 1.06581e-014 -1e-006 -119.638 0.000157284 -0.000589889 18.6534 2e-006 1.59872e-013 54.6911 16.2351 28.7255 5.09143 13.9567 -4.76541e-006 98.5163 -2.99743 3.55116 4.288 -3.55272e-015 -1.77636e-015 35.6424 -7.97854e-005 1.60971e-005 3.85799 2.13874e-012 -2e-006 -45 5.14306e-005 2.8308e-005 9.14402 -0.006271 0.287328 4.07905 -3.8632 4.26887 8.04405 -0.006362 -0.000581 3.08781 5.36178 21.6367 8.0447 -0.006248 -0.00072 8.99986 6.36305 14.7549 8.04411 -0.008224 -0.000358001 2.67077 2.42298 8.88669 10.6677 1.06841 -2.87352e-006 -22.2969 -0.00162052 11.0688 -0.626481 -5.33948 -9.34227 -117.582 -74.2309 160.14 19.0492 2e-006 -1e-006 98.3186 -10.8863 -70.5868 10.3706 -9.99999e-007 3e-006 -99.5833 0.00031916 -0.00374301 22.8631 1e-006 1e-006 -7.95536 -15.0177 -2.4442 6.48257 0.103653 0.504498 -56.6906 13.3705 -8.18071 3.66843 -2.36566e-012 2e-006 40.107 7.692e-005 -3.38445e-005 -4.1017 -5.3398 8.41664 121.411 79.6453 -35.2577 19.0492 -3e-006 -9.23706e-014 68.9947 -38.5891 82.9285 10.3706 -3e-006 -3e-006 -80.3593 -9.04247e-005 -0.00105596 22.8631 -7e-006 -3e-006 44.9042 -26.4303 4.23181 6.48256 0.103653 -0.504494 -38.5067 10.2872 11.6577 3.66843 1e-006 -1e-006 36.0498 -6.78483e-006 6.42428e-006 7.52516 -0.006637 3.40001e-005 -9.36729 -0.161687 16.3578 8.475 -0.006572 3.00001e-005 -0.838964 -0.274105 18.9321 8.41605 7.10543e-015 -7.10543e-015 -31.0597 -46.4398 35.6171 -3e-006 7e-006 -7e-006 -23.1098 1.37701e-015 90 -4.32851e-006 -0.500004 5.66983e-006 -138.05 90 -131.95 0 0 0 -111.808 -1.52588e-005 -180 3.32199 13.9104 3.88994 -22.989 1.37021e-015 90 0 0 0 -60.3418 1.52588e-005 -180 0 0 0 -120.289 -4.63207e-006 5.62457e-006 0 0 0 133.74 -5.35715e-006 -9.73036e-007 0 0 0 1.83152 4.13115e-007 -1.41457e-007 0 0 0 -17.65 -2.81407e-006 1.21603e-006 0 0 0 -26.1943 6.4339e-006 2.9292e-006 15.5776 -0.000396 -7.00005e-006 3.18055e-015 0 -0 9.40547 1.04011 -6.51668 38.4122 -14.1445 85.2422 2.77379 -0.004741 0.001875 33.6659 -17.1826 17.5356 9.40581 1.04012 6.51669 38.4126 14.145 -85.2416 2.77379 -0.004741 -0.001816 33.6662 17.1842 -17.5351 
